<?xml version="1.0" encoding="UTF-8" standalone="no"?>
<!DOCTYPE svg PUBLIC "-//W3C//DTD SVG 1.1//EN" "http://www.w3.org/Graphics/SVG/1.1/DTD/svg11.dtd">
<svg width="100%" height="100%" viewBox="0 0 1024 1024" version="1.1" xmlns="http://www.w3.org/2000/svg" xmlns:xlink="http://www.w3.org/1999/xlink" xml:space="preserve" xmlns:serif="http://www.serif.com/" style="fill-rule:evenodd;clip-rule:evenodd;stroke-linejoin:round;stroke-miterlimit:2;">
    <g transform="matrix(1.09135,0,0,1,-62.4359,149.952)">
        <path d="M159.09,288.003L103.707,246.081L120.561,219.562C121.871,217.501 123.427,215.546 125.228,213.696C127.029,211.847 129.165,210.512 131.636,209.692C134.108,208.872 137.026,208.912 140.391,209.813C143.756,210.713 147.65,212.838 152.073,216.185C156.545,219.571 159.791,222.831 161.81,225.965C163.829,229.1 164.97,232.052 165.234,234.822C165.497,237.592 165.219,240.173 164.398,242.564C163.578,244.955 162.547,247.126 161.307,249.079C160.652,250.109 159.921,251.143 159.115,252.179C158.309,253.216 157.483,254.197 156.637,255.123C155.791,256.048 154.997,256.893 154.254,257.656C153.512,258.419 152.901,259.062 152.423,259.583L169.119,272.222L159.09,288.003ZM140.944,250.894L146.734,241.783C147.423,240.698 147.693,239.637 147.543,238.6C147.392,237.562 146.861,236.517 145.947,235.464C145.034,234.412 143.782,233.283 142.192,232.08C140.652,230.914 139.265,230.085 138.032,229.593C136.799,229.102 135.732,228.957 134.831,229.158C133.93,229.36 133.152,229.976 132.497,231.006L126.707,240.117L140.944,250.894Z" style="fill:rgb(11,34,42);fill-rule:nonzero;"/>
        <path d="M195.441,232.704L147.114,181.431L167.158,158.929C169.224,156.61 171.381,154.756 173.63,153.368C175.878,151.98 178.253,151.232 180.753,151.123C183.254,151.015 185.892,151.674 188.669,153.101C191.446,154.529 194.418,156.922 197.583,160.28C199.578,162.396 201.144,164.426 202.281,166.369C203.418,168.311 204.211,170.143 204.661,171.863C205.111,173.583 205.293,175.248 205.207,176.86C205.121,178.472 204.896,180.05 204.531,181.596L231.42,192.313L218.964,206.297L195.736,196.014L191.057,201.267L207.708,218.933L195.441,232.704ZM181.04,190.64L186.605,184.393C187.279,183.636 187.772,182.87 188.082,182.095C188.393,181.32 188.511,180.501 188.436,179.639C188.36,178.777 188.071,177.894 187.567,176.992C187.064,176.09 186.335,175.132 185.381,174.12C184.427,173.108 183.541,172.352 182.722,171.851C181.903,171.35 181.13,171.105 180.403,171.117C179.676,171.128 178.973,171.325 178.293,171.709C177.614,172.093 176.937,172.664 176.263,173.421L170.698,179.667L181.04,190.64Z" style="fill:rgb(11,34,42);fill-rule:nonzero;"/>
        <path d="M254.51,173.094C253.353,174.051 251.876,175.066 250.079,176.139C248.282,177.211 246.314,177.929 244.175,178.29C242.036,178.652 239.811,178.318 237.502,177.288C235.193,176.258 232.906,174.113 230.641,170.852L209.379,140.241C207.406,137.401 206.172,134.695 205.676,132.124C205.18,129.553 205.208,127.19 205.76,125.035C206.313,122.88 207.229,120.922 208.509,119.159C209.788,117.396 211.175,115.897 212.669,114.661C216.718,111.311 220.245,108.497 223.252,106.216C226.259,103.935 228.89,101.987 231.144,100.37C233.398,98.754 235.418,97.373 237.203,96.228L246.19,109.166L226.816,125.194C225.611,126.191 224.896,127.238 224.672,128.335C224.447,129.432 224.737,130.559 225.54,131.716L228.938,136.607L248.932,121.308L257.371,133.458L238.473,150.335L241.542,154.753C242.2,155.699 242.871,156.366 243.556,156.751C244.242,157.137 244.926,157.275 245.608,157.165C246.291,157.056 246.922,156.762 247.5,156.284L267.452,139.777L276.44,152.716C274.586,154.746 272.408,156.962 269.903,159.366C267.399,161.769 264.809,164.159 262.135,166.537C259.461,168.915 256.92,171.101 254.51,173.094Z" style="fill:rgb(11,34,42);fill-rule:nonzero;"/>
        <path d="M288.066,145.611L256.035,80.891L282.215,65.46C286.525,62.919 290.473,61.661 294.059,61.685C297.645,61.709 300.969,62.731 304.031,64.752C307.093,66.773 309.913,69.555 312.492,73.098C315.07,76.642 317.48,80.678 319.722,85.208C323.487,92.815 325.756,99.448 326.528,105.106C327.301,110.764 326.657,115.644 324.598,119.746C322.538,123.848 319.087,127.326 314.245,130.18L288.066,145.611ZM296.049,121.328L305.148,115.964C307.117,114.804 308.359,113.321 308.875,111.517C309.391,109.713 309.25,107.414 308.452,104.621C307.654,101.829 306.249,98.4 304.238,94.335C302.341,90.502 300.652,87.541 299.171,85.451C297.69,83.361 296.329,81.931 295.089,81.162C293.849,80.393 292.671,80.094 291.553,80.265C290.435,80.436 289.29,80.867 288.12,81.557L279.021,86.921L296.049,121.328Z" style="fill:rgb(11,34,42);fill-rule:nonzero;"/>
        <path d="M347.938,112.561L322.935,44.253L339.278,37.128L364.281,105.436L347.938,112.561Z" style="fill:rgb(11,34,42);fill-rule:nonzero;"/>
        <path d="M400.402,93.288C396.735,94.417 393.324,94.954 390.167,94.897C387.011,94.84 384.056,93.864 381.304,91.968C378.552,90.073 376.007,86.913 373.669,82.49C371.332,78.066 369.178,72.043 367.207,64.421C365.302,57.053 364.324,50.839 364.273,45.78C364.222,40.721 364.926,36.578 366.386,33.352C367.845,30.125 369.902,27.571 372.558,25.69C375.214,23.81 378.288,22.332 381.78,21.257C385.388,20.145 388.628,19.371 391.5,18.932C394.371,18.494 396.856,18.26 398.953,18.232C401.051,18.203 402.756,18.295 404.068,18.508L407.787,32.896C406.616,32.982 405.124,33.167 403.312,33.451C401.5,33.734 399.453,34.142 397.172,34.673C394.89,35.204 392.439,35.873 389.82,36.679C387.841,37.289 386.225,38.026 384.972,38.892C383.72,39.758 382.858,40.983 382.388,42.568C381.918,44.153 381.827,46.29 382.113,48.979C382.4,51.668 383.094,55.14 384.194,59.396C385.179,63.207 386.146,66.339 387.094,68.79C388.041,71.241 389.078,73.065 390.205,74.261C391.331,75.457 392.685,76.137 394.267,76.302C395.849,76.466 397.775,76.199 400.045,75.5C404.468,74.138 408.042,72.952 410.765,71.942C413.489,70.932 415.633,70.049 417.197,69.293L420.916,83.68C419.625,84.763 418.063,85.827 416.228,86.872C414.393,87.917 412.199,88.97 409.645,90.031C407.092,91.091 404.011,92.177 400.402,93.288Z" style="fill:rgb(11,34,42);fill-rule:nonzero;"/>
        <path d="M447.741,81.234L440.483,25.462L423.688,28.065L421.469,11.01L472.482,3.104L474.701,20.159L457.906,22.762L465.164,78.533L447.741,81.234Z" style="fill:rgb(11,34,42);fill-rule:nonzero;"/>
        <path d="M519.984,75.627C515.206,75.623 511.018,75.109 507.421,74.083C503.823,73.057 500.816,71.223 498.399,68.581C495.981,65.939 494.169,62.159 492.963,57.241C491.757,52.323 491.156,45.97 491.162,38.182C491.167,30.394 491.776,24.042 492.989,19.126C494.201,14.21 496.018,10.433 498.439,7.795C500.86,5.157 503.87,3.328 507.469,2.308C511.068,1.288 515.256,0.779 520.033,0.783C524.811,0.787 528.999,1.302 532.596,2.328C536.194,3.354 539.201,5.187 541.619,7.829C544.036,10.471 545.848,14.251 547.054,19.169C548.26,24.087 548.861,30.44 548.856,38.228C548.85,46.016 548.241,52.368 547.029,57.284C545.816,62.2 543.999,65.977 541.578,68.615C539.157,71.253 536.148,73.083 532.549,74.103C528.95,75.123 524.761,75.631 519.984,75.627ZM519.995,58.401C522.293,58.403 524.168,58.108 525.62,57.515C527.072,56.922 528.206,55.9 529.024,54.448C529.841,52.997 530.417,50.951 530.751,48.312C531.086,45.672 531.254,42.306 531.257,38.214C531.26,33.924 531.096,30.459 530.765,27.819C530.434,25.178 529.861,23.149 529.046,21.729C528.23,20.309 527.097,19.335 525.646,18.806C524.195,18.277 522.32,18.011 520.022,18.009C517.784,18.007 515.925,18.27 514.443,18.797C512.961,19.324 511.811,20.296 510.994,21.715C510.176,23.133 509.6,25.162 509.266,27.802C508.932,30.441 508.763,33.906 508.76,38.196C508.757,42.288 508.921,45.654 509.252,48.295C509.583,50.935 510.156,52.981 510.972,54.434C511.787,55.887 512.936,56.911 514.417,57.506C515.898,58.101 517.758,58.399 519.995,58.401Z" style="fill:rgb(11,34,42);fill-rule:nonzero;"/>
        <path d="M582.785,80.472C580.81,80.161 578.888,79.792 577.02,79.364C575.152,78.937 573.322,78.449 571.531,77.9C569.74,77.351 568.028,76.782 566.395,76.191C564.763,75.601 563.198,74.955 561.702,74.252L563.697,59.162C565.706,59.679 567.884,60.188 570.231,60.691C572.578,61.194 574.96,61.669 577.375,62.116C579.791,62.563 582.046,62.951 584.141,63.281C586.116,63.592 587.784,63.687 589.144,63.568C590.504,63.449 591.56,63.082 592.314,62.467C593.067,61.852 593.526,60.924 593.69,59.683L593.845,58.507C594.035,57.07 593.714,55.919 592.881,55.054C592.048,54.19 591.003,53.658 589.746,53.461L584.988,52.711C578.045,51.619 572.997,49.124 569.846,45.227C566.695,41.33 565.638,35.462 566.674,27.623L567.101,24.39C568.051,17.204 570.736,12.142 575.157,9.204C579.578,6.265 585.5,5.38 592.922,6.549C595.735,6.992 598.364,7.556 600.81,8.24C603.255,8.925 605.542,9.652 607.67,10.421C609.799,11.189 611.701,11.939 613.376,12.669L611.382,27.759C608.663,27.064 605.594,26.364 602.173,25.659C598.753,24.954 595.637,24.38 592.823,23.938C591.147,23.674 589.634,23.569 588.282,23.623C586.931,23.677 585.844,24.039 585.022,24.71C584.201,25.381 583.69,26.468 583.492,27.97L583.362,28.95C583.146,30.583 583.461,31.899 584.307,32.899C585.152,33.899 586.563,34.555 588.538,34.866L594.464,35.799C598.654,36.458 602.026,37.872 604.58,40.042C607.135,42.211 608.919,44.892 609.933,48.086C610.947,51.28 611.203,54.771 610.702,58.56L610.275,61.793C609.455,67.999 607.841,72.58 605.434,75.535C603.028,78.49 599.923,80.252 596.121,80.82C592.318,81.389 587.873,81.273 582.785,80.472Z" style="fill:rgb(11,34,42);fill-rule:nonzero;"/>
        <path d="M616.216,85.262L654.514,20.934L675.56,27.746L675.529,104.46L658.048,98.802L658.483,86.758L639.089,80.48L633.523,90.864L616.216,85.262ZM647.49,65.232L659.057,68.976L660.607,39.944L647.49,65.232Z" style="fill:rgb(11,34,42);fill-rule:nonzero;"/>
        <path d="M706.189,120.435C702.851,118.722 699.818,116.802 697.093,114.675C694.367,112.547 692.202,110.088 690.598,107.296C688.994,104.504 688.179,101.315 688.154,97.728C688.128,94.142 689.119,90.019 691.125,85.36L710.342,40.741L726.269,48.911L707.091,93.44C706.422,94.993 706.211,96.453 706.457,97.819C706.704,99.186 707.375,100.46 708.47,101.641C709.565,102.823 711.043,103.891 712.904,104.845C714.764,105.8 716.461,106.36 717.993,106.526C719.525,106.692 720.852,106.443 721.974,105.779C723.095,105.114 723.99,104.006 724.659,102.453L743.838,57.923L759.765,66.093L740.547,110.712C738.541,115.371 736.264,118.834 733.717,121.101C731.171,123.368 728.401,124.719 725.407,125.152C722.414,125.586 719.311,125.343 716.098,124.424C712.886,123.505 709.582,122.176 706.189,120.435Z" style="fill:rgb(11,34,42);fill-rule:nonzero;"/>
        <path d="M743.23,140.357L781.276,79.639L805.013,97.354C807.459,99.18 809.5,101.183 811.137,103.364C812.774,105.546 813.855,107.971 814.38,110.642C814.905,113.312 814.76,116.262 813.945,119.492C813.13,122.722 811.476,126.325 808.984,130.302C807.414,132.808 805.849,134.838 804.289,136.392C802.729,137.947 801.211,139.112 799.735,139.89C798.258,140.667 796.786,141.147 795.316,141.329C793.846,141.512 792.382,141.539 790.924,141.41L785.837,172.154L771.085,161.145L776.406,134.413L770.865,130.278L757.757,151.198L743.23,140.357ZM778.751,117.693L785.34,122.611C786.139,123.207 786.915,123.606 787.668,123.808C788.42,124.01 789.179,123.997 789.945,123.769C790.711,123.54 791.458,123.079 792.187,122.383C792.916,121.688 793.655,120.741 794.406,119.542C795.158,118.344 795.689,117.261 796.002,116.295C796.314,115.329 796.403,114.456 796.269,113.676C796.135,112.896 795.836,112.174 795.374,111.509C794.911,110.844 794.281,110.214 793.482,109.618L786.893,104.7L778.751,117.693Z" style="fill:rgb(11,34,42);fill-rule:nonzero;"/>
        <path d="M813.522,199.92C810.839,197.156 808.507,194.3 806.526,191.351C804.544,188.402 803.19,185.328 802.464,182.129C801.738,178.931 801.875,175.623 802.876,172.207C803.877,168.79 805.996,165.21 809.234,161.467L840.245,125.616L853.042,138.8L822.094,174.579C821.014,175.827 820.397,177.142 820.241,178.524C820.085,179.906 820.358,181.345 821.06,182.84C821.763,184.336 822.862,185.853 824.357,187.394C825.852,188.934 827.304,190.044 828.712,190.724C830.121,191.403 831.453,191.618 832.708,191.368C833.963,191.119 835.131,190.37 836.21,189.122L867.159,153.343L879.956,166.527L848.945,202.378C845.707,206.122 842.554,208.637 839.487,209.924C836.419,211.211 833.401,211.551 830.433,210.944C827.465,210.337 824.587,209.05 821.797,207.083C819.007,205.117 816.249,202.729 813.522,199.92Z" style="fill:rgb(11,34,42);fill-rule:nonzero;"/>
        <path d="M855.186,250.443C853.977,248.71 852.844,246.976 851.787,245.242C850.729,243.508 849.738,241.76 848.814,239.998C847.889,238.236 847.035,236.52 846.25,234.85C845.465,233.179 844.765,231.521 844.149,229.876L855.266,220.643C856.367,222.549 857.593,224.579 858.943,226.733C860.293,228.888 861.686,231.048 863.121,233.215C864.557,235.382 865.915,237.385 867.197,239.223C868.406,240.956 869.533,242.301 870.579,243.256C871.626,244.212 872.615,244.759 873.547,244.897C874.48,245.035 875.403,244.724 876.317,243.965L877.183,243.245C878.242,242.366 878.752,241.3 878.714,240.046C878.676,238.792 878.272,237.614 877.503,236.511L874.591,232.335C870.343,226.243 868.347,220.602 868.604,215.412C868.861,210.223 871.877,205.23 877.652,200.433L880.034,198.455C885.327,194.058 890.494,192.504 895.534,193.792C900.574,195.079 905.365,198.98 909.906,205.492C911.628,207.961 913.14,210.375 914.443,212.734C915.747,215.094 916.911,217.362 917.935,219.538C918.958,221.715 919.833,223.705 920.558,225.508L909.442,234.741C907.949,232.165 906.21,229.317 904.225,226.198C902.239,223.078 900.386,220.284 898.664,217.815C897.639,216.345 896.627,215.112 895.629,214.116C894.631,213.12 893.623,212.547 892.606,212.397C891.589,212.246 890.527,212.63 889.42,213.55L888.698,214.149C887.495,215.149 886.874,216.328 886.834,217.688C886.795,219.048 887.379,220.595 888.588,222.328L892.214,227.527C894.777,231.204 896.273,234.793 896.701,238.294C897.129,241.795 896.678,245.073 895.349,248.125C894.02,251.178 891.96,253.864 889.169,256.182L886.787,258.161C882.215,261.958 878.121,263.989 874.507,264.254C870.892,264.52 867.546,263.4 864.47,260.896C861.394,258.392 858.299,254.908 855.186,250.443Z" style="fill:rgb(11,34,42);fill-rule:nonzero;"/>
    </g>
    <g transform="matrix(1.29491,0,0,1.29491,91.1078,20.723)">
        <circle cx="192.837" cy="383.908" r="10.483" style="fill:white;"/>
    </g>
    <g transform="matrix(1,0,0,1,2.63546,91.0191)">
        <path d="M496.882,207.101C486.057,205.742 466.163,247.733 456.17,261.676C452.205,267.21 450.954,267.937 451.523,280.937C452.136,294.937 462.676,299.986 476,296.591C477.925,296.101 510.367,291.919 518.394,291.544C532.988,290.862 501.689,288.711 502.28,252.253C502.858,216.625 503.133,213.015 505.039,216.029C506.748,218.731 507.264,214.539 505.039,209.959C502.662,205.067 497.697,204.375 496.882,207.101ZM329.798,294.589C328.596,296.954 328.609,298.991 329.891,309.089C330.711,315.551 331.66,323.894 332.001,327.629C332.745,335.792 336.875,338.177 352.193,329.683C357.968,326.481 368.981,322.568 373.931,320.548C385.444,315.848 394.441,316.374 391.385,307.757C387.158,295.84 369.025,277.573 364.369,261.676C361.98,253.522 359.769,246.435 359.454,245.926C358.524,244.421 358.11,234.663 355.852,233.094C351.745,230.241 352.899,232.717 348.762,245.926M643.5,239.875C641.85,240.888 628.66,244.318 622.094,248.384C615.528,252.45 603.159,260.85 593.5,265.8C569.602,278.047 571.524,298.696 592.656,305.893C599.256,308.14 609.415,313.281 614.573,315.591C619.732,317.901 640.259,325.815 638.772,323.873C637.747,322.534 639.079,271.757 640.505,264.29C641.579,258.673 643.234,253.761 645.092,250.684C646.993,247.534 650.66,240.875 650.66,238.304C650.66,233.842 644.67,236.549 640.505,239.105M471.186,309.607C421.577,314.702 373.472,332.444 313.051,366.837C307.039,370.259 268.57,389.749 268.133,389.749C266.74,389.749 209.457,423.322 195.419,431.688C177.489,442.373 167.56,457.72 164.717,482.13C163.931,488.879 167.328,494.661 167.572,494.906C167.816,495.15 162.288,516.596 168.558,529.129C173.311,538.631 188.499,549.958 199,555.283C211.457,561.599 209.624,555.129 282.5,556.062C319.35,556.533 353.016,560.421 360.691,565.224C386.41,581.319 457.003,534.624 457.931,529.129C459.367,520.625 487.343,560.141 494.788,574.7C500.571,586.012 518.318,583.75 528.138,565.224C529.887,561.924 529.855,551.083 531.727,548.129C533.599,545.175 538.318,536.625 542.215,529.129C546.111,521.633 551.032,512.937 553.15,509.805C558.075,502.519 595.535,498.022 596.2,498.277C597.274,498.689 614.587,488.2 633.121,460.042C638.945,451.193 700.661,427.477 710.068,436.753C727.861,454.297 729.086,441.465 728.732,436.753C728.526,434.013 734.908,431.893 735.523,431.688C738.731,430.619 691.331,381.28 675.365,369.098C618.834,325.964 545.887,302.43 476,309.607M735.523,340.791C730.848,341.195 720.434,340.627 712.184,341.278C691.532,342.907 684.261,348.169 684.261,354.091C684.261,355.826 692.839,364.961 701.726,372.074C705.505,375.099 711.509,380.117 715.344,384.34C722.318,392.017 726.273,399.887 728.732,396.965C730.085,395.357 735.771,384.021 740.204,380.721C744.638,377.42 750.412,367.078 757.895,359.829C765.378,352.579 777.966,343.087 779.753,342.03C785.99,338.34 762.425,338.505 736,340.791M329.71,399.411C293.84,415.694 308.452,465.496 345.895,453.403C372.343,444.861 372.568,407.94 345.895,399.411C338.718,397.116 338.716,396.973 333.345,399.411M771,447.314C775.265,455.798 776.821,460.457 782.575,469.97C785.373,474.598 790.883,483.706 793.298,488.483C797.69,497.17 797.956,494.873 804.092,488.483C818.969,472.99 843.253,460.118 848.924,460.042C852.287,459.997 845.965,454.913 844.446,453.403C843.946,452.907 835.357,451.124 825.357,449.441C815.358,447.758 802.533,445.297 796.857,443.972C785.913,441.418 769.878,437.776 765.62,437.776C763.051,437.776 765.261,439.39 769.245,447.314M456.17,529.129C456.012,541.799 405.515,572.817 387.952,574.409C381.275,575.015 365.304,577.673 359.084,574.7C356.945,573.677 336.584,564.465 342.149,574.409C355.694,598.61 396.043,620.24 414.707,659.973C505.945,854.21 514.447,694.019 489.08,588.681" style="fill:rgb(154,192,162);"/>
    </g>
    <g transform="matrix(1,0,0,1,2.63546,91.0191)">
        <path d="M504.461,213.08C494.032,219.694 503.156,288.755 514.595,289.367C521.693,289.747 532.9,290.887 539.5,291.902C553.735,294.09 552.531,294.721 551.199,285.775C550.603,281.774 549.835,275.94 549.493,272.811C548.935,267.706 548.528,266.919 545.535,265.153C541.829,262.967 527.58,245.624 515.009,228C510.498,221.675 506.325,214.492 505.962,213.66C505.455,212.5 505.275,212.448 504.461,213.08M648.125,242.684C648.056,244.435 646.692,248.035 645.092,250.684C643.234,253.761 641.579,258.673 640.505,264.29C639.019,272.071 630.5,306.454 633.055,318.472C635.719,331.007 650.511,335.288 661.2,342.506C663.4,343.992 665.825,344.991 666.589,344.726C667.518,344.404 667.715,344.67 667.185,345.529C666.664,346.371 666.789,346.567 667.545,346.099C668.294,345.637 668.687,341.977 668.664,335.695C668.592,315.984 664.603,301.694 656.981,274.913C653.003,260.936 651.555,245.434 651.143,242.684C650.59,238.998 649.322,233.533 649.23,235.88M352.289,233.097C356.789,249.024 371.932,299.215 389.735,310.509C401.176,317.767 418.646,300 421.477,300C424.009,300 424.009,300 423.421,288.25C422.731,274.481 422.625,274 420.253,274C416.356,274 393.892,257.885 381.651,248.968C376.666,245.336 359.859,231.775 358.244,230.71M777.439,341.902C777.746,342.398 776.535,343.669 774.749,344.726C772.962,345.783 727.136,381.5 727.136,395.2C727.136,401.147 736.919,405.7 739.543,409.178C748.794,421.436 750.01,421.508 753.502,410C753.919,408.625 755.521,404.8 757.061,401.5C758.602,398.2 762.09,389.2 764.812,381.5C776.169,349.378 778.237,343.547 778.713,342.305C778.989,341.587 778.689,341 778.048,341C777.407,341 777.133,341.406 777.439,341.902M734.796,432.523C719.806,416.775 591.883,453.21 579.955,471.083C570.223,485.666 570.223,485.666 575.518,488.833C581.772,492.574 581.291,492.521 586.434,490.035C595.947,485.439 608.214,487.156 615.629,494.121C617.764,496.127 617.764,496.127 628.132,493.14C633.834,491.498 641.65,489.381 645.5,488.436C663.273,484.075 684.288,477.101 686.852,474.712C701.074,461.461 726.318,477.26 718.793,494.703C711.78,510.959 694.963,515.257 684.5,503.466C681.098,499.632 683.09,499.277 641.758,511.083C623.016,516.437 613.688,511.392 612.069,516.265C603.95,540.709 582.151,538.836 578.766,513.313C578.069,508.064 574.982,512.669 549.5,497.243C544.55,494.246 539.6,491.053 538.5,490.147C536.554,488.545 536.546,488.555 538.212,490.537C539.154,491.657 543.766,494.794 548.462,497.507C558.377,503.237 558.094,502.492 553.15,509.805C551.032,512.937 546.111,521.633 542.215,529.129C538.318,536.625 533.599,545.175 531.727,548.129C529.855,551.083 526.893,556.2 525.144,559.5C515.832,577.069 495.008,564.839 494.623,564.601C494.238,564.363 500.82,571.733 505.33,581.231C513.531,598.5 513.531,598.5 512.957,681C512.641,726.375 512.464,763.63 512.563,763.788C512.662,763.946 514.134,761.921 515.835,759.288C517.536,756.655 519.96,753.375 521.221,752C523.127,749.921 531.774,739.061 537.432,731.638C538.213,730.614 665.14,585.988 666.589,585.071C668.383,583.937 751.351,549.028 778.25,548.306C792.148,547.933 800,547.35 800,546.691C800,544.874 786.053,517.329 779.501,506C777.433,502.425 774.381,497.025 772.718,494C771.055,490.975 768.92,487.375 767.974,486C774.76,476.757 745.433,426.816 734.796,432.523ZM841.5,459.93C835.335,460.977 801.279,479.669 796.944,494.703C796.709,495.518 801.643,501.529 804.873,507.906C808.104,514.283 811.286,521.181 811.946,523.236C814.144,530.081 815.912,527.667 825.672,504.5C827.062,501.2 830.147,494.37 832.527,489.322C834.908,484.273 838.04,476.848 839.487,472.822C840.935,468.795 842.977,464.038 844.026,462.25C845.075,460.462 845.835,459.056 845.716,459.125C845.597,459.194 843.7,459.556 841.5,459.93M561.071,595.752C549.527,601.638 547.967,615.864 558.102,622.839C571.151,631.821 589.172,612.238 578.766,600.386C573.316,594.179 567.264,592.594 561.071,595.752" style="fill:rgb(119,129,126);"/>
    </g>
    <g transform="matrix(1,0,0,1,2.63546,91.0191)">
        <path d="M498.513,177.58C497.121,179.083 492.768,185.079 488.841,190.906C471.153,217.147 445.138,249.687 437.5,255.124C431.995,259.043 419.277,252.958 372.637,224.089C346.291,207.781 340.798,206.432 338.689,215.75C334.394,234.73 320.711,278.749 316.726,286.41C312.521,294.492 312.521,294.492 312.862,319.138C313.05,332.693 312.911,344.704 312.554,345.829C311.82,348.143 297.285,356.644 269.5,371.009C178.097,418.266 170.826,423.342 158.502,448.5C135.446,495.567 149.971,549.528 191,569.224C205.91,576.382 204.598,576.226 255.5,576.895C308.141,577.587 300.436,576.203 321.311,588.719C348.147,604.81 369.651,626.82 395.833,665C400.925,672.425 410.133,685.561 416.295,694.191C437.077,723.293 455.617,749.452 461.166,757.5C464.199,761.9 469.217,769.172 472.315,773.661C475.414,778.15 482.395,789.155 487.829,798.118C501.7,820.997 505.739,821.939 510.563,803.419C512.569,795.719 546.819,748.925 588.58,696.83C596.786,686.593 607.833,672.656 613.129,665.859C674.484,587.108 740.018,556.97 814,573.479C831.245,577.328 832.258,576.082 826.58,558C823.283,547.5 823.283,547.5 825.915,546.34C827.654,545.573 829.464,543.199 831.251,539.34C835.688,529.758 848.999,499.047 852.126,491.18C853.726,487.153 858.885,476.27 863.59,466.994C874.552,445.383 874.55,445.279 863,442.33C858.325,441.136 852.025,439.495 849,438.683C833.576,434.542 811.505,429.819 794.5,427.019C784.05,425.298 774.524,423.691 773.332,423.447C771.215,423.014 771.281,422.703 776.108,410.252C799.694,349.419 807.15,326.039 803.42,324.608C796.069,321.787 758.108,320.506 736.5,322.35C707.985,324.783 688.336,325.317 687.705,323.675C687.418,322.926 686.859,315.605 686.463,307.407C685.842,294.55 685.43,291.95 683.469,288.5C679.55,281.604 676.16,270.608 669.481,243.12C665.924,228.479 662.657,215.153 662.221,213.507C660.83,208.25 645.833,215.315 610.5,237.874C604.204,241.894 595.306,246.362 574.68,255.86C570.929,257.587 567.709,259 567.524,259C566.919,259 554.387,245.662 548.262,238.5C542.705,232.002 523.635,205.445 509.533,184.567C502.595,174.294 501.942,173.88 498.513,177.58M498.238,210.736C494.294,216.762 466.607,251.382 458.856,259.978C453.015,266.455 453.015,266.455 453.646,279.478C454.41,295.229 452.645,293.674 467.243,291.46C485.177,288.739 521.743,288.859 539,291.695C553.797,294.127 552.534,294.739 551.199,285.775C550.603,281.774 549.835,275.94 549.493,272.811C548.934,267.691 548.534,266.922 545.497,265.131C539.821,261.782 511.579,225.048 504.445,211.736C501.356,205.971 501.356,205.971 498.238,210.736M352.618,235.195C349.493,246.485 342.66,267.786 338.246,280C332.092,297.029 331.873,298.733 333.747,315C334.412,320.775 335.05,327.637 335.165,330.25C335.445,336.611 337.338,336.364 351.418,328.125C355.223,325.899 362.873,322.174 368.418,319.847C373.963,317.52 378.95,315.293 379.5,314.897C383.22,312.221 417.665,300 421.487,300C424.009,300 424.009,300 423.421,288.25C422.73,274.447 422.629,274 420.209,274C417.397,274 401.728,265.886 390.5,258.617C385,255.056 376,249.354 370.5,245.946C365,242.538 358.808,238.431 356.74,236.82C354.14,234.794 352.868,234.292 352.618,235.195M641.5,240.824C638.75,242.358 631.55,246.702 625.5,250.477C619.45,254.253 606.962,261.107 597.75,265.71C575.797,276.678 571.903,298.357 590.875,303.975C594.932,305.177 603.932,308.634 610.875,311.658C617.819,314.682 623.95,317.267 624.5,317.402C628.56,318.395 649.066,329.677 659.419,336.613C665.794,340.884 666.006,340.644 665.966,329.191C665.898,309.42 664.483,301.012 656.526,273.082C652.387,258.553 649,245.427 649,243.914C649,237.409 648.209,237.083 641.5,240.824M469,311.517C427.391,315.829 379.346,332.094 338,355.864C334.878,357.659 328.932,360.838 297.847,377.335C289.415,381.809 256.177,399.213 235,410.242C204.095,426.337 188.502,436.322 183.262,443.37C173.792,456.11 168.983,469.672 167.527,487.75C166.863,496 166.863,496 215.181,496.145C410.92,496.732 412.475,496.806 412.787,505.509C413.271,519.052 428.837,517.563 291.579,517.098C173,516.697 173,516.697 173,519.189C173,527.367 184.412,541.654 196.653,548.799C208.892,555.944 209.404,555.999 262.96,556.005C289.107,556.007 322.65,556.56 337.5,557.233C387.52,559.501 394.857,558.738 414,549.276C426.345,543.175 443.339,526.867 449.249,515.45C456.627,501.198 459.833,489.971 461.02,474.232C462.199,458.598 465.462,455.242 475.433,459.408C486.957,464.223 485.448,478.478 468.998,520.209C466.748,525.917 466.748,525.917 469.946,528.608C480.775,537.72 493.721,556.905 504.962,580.5C513.538,598.5 513.538,598.5 512.961,681C512.643,726.375 512.464,763.63 512.563,763.788C512.662,763.946 514.134,761.921 515.835,759.288C517.536,756.655 622.459,609.876 668.798,583.212C672.148,581.285 677.143,577.93 678.338,577.353C711.543,561.311 751.351,549.028 778.25,548.306C792.148,547.933 800,547.35 800,546.691C800,544.874 786.053,517.329 779.501,506C777.433,502.425 774.381,497.025 772.718,494C771.055,490.975 768.92,487.375 767.974,486C767.028,484.625 764.838,480.683 763.107,477.24C751.944,455.027 717.209,412.283 688.281,385.161C627.63,328.295 552.042,302.909 469,311.517M717,343.174C682.278,346.159 677.305,351.56 696.5,365.444C705.779,372.155 732.361,399.345 740.954,410.914C748.689,421.327 750.096,421.225 753.502,410C753.919,408.625 755.521,404.8 757.061,401.5C758.602,398.2 762.09,389.2 764.812,381.5C776.169,349.378 778.237,343.547 778.713,342.305C779.474,340.323 744.424,340.817 717,343.174M483.885,344.323C473.001,348.383 466.991,356.715 467.01,367.718C467.046,389.157 490.72,400.681 506.39,386.888C510.742,383.057 520.363,384.664 566.5,396.929C568.7,397.513 575.369,399.164 581.32,400.596C587.271,402.028 592.28,403.718 592.452,404.35C597.855,424.247 613.09,432.414 627.817,423.31C643.664,413.513 642.321,388.181 625.541,380.367C617.772,376.749 608.603,377.432 602,382.119C599.568,383.846 599.054,383.787 583,379.921C562.02,374.869 548.607,371.13 546.686,370.625C545.484,370.308 537.66,368.425 529.3,366.44C514.099,362.83 514.099,362.83 513,359.499C509.208,348.01 494.523,340.355 483.885,344.323M326.019,397.623C290.996,415.425 313.254,470.34 349.931,456.619C369.514,449.292 374.586,419.822 358.955,404.19C350.118,395.353 336.016,392.542 326.019,397.623M414.455,414.455C409.976,418.933 411.336,427.571 416.98,430.49C428.35,436.37 440.551,421.299 430.102,414.282C425.25,411.023 417.804,411.105 414.455,414.455M333.378,416.437C320.817,421.904 327.777,440.14 341.446,437.576C351.414,435.706 351.301,418.844 341.302,416.067C336.715,414.793 337.208,414.77 333.378,416.437M496.5,440.024C478.373,449.191 487.86,478.16 508.5,476.669C515.5,476.164 515.5,476.164 527.5,483.553C534.1,487.618 543.1,493.148 547.5,495.843C574.023,512.09 573.353,511.554 574.529,517.445C579.614,542.911 613.3,545.689 621.397,521.31C623.016,516.437 623.016,516.437 641.758,511.083C683.09,499.277 681.098,499.632 684.5,503.466C694.963,515.257 711.78,510.959 718.793,494.703C726.318,477.26 701.074,461.461 686.852,474.712C684.288,477.101 663.273,484.075 645.5,488.436C641.65,489.381 633.834,491.498 628.132,493.14C617.764,496.127 617.764,496.127 615.629,494.121C608.214,487.156 595.947,485.439 586.434,490.035C584.198,491.116 582.011,492 581.574,492C580.619,492 560.717,480.175 553,475.022C549.975,473.002 542.52,468.367 536.432,464.721C525.365,458.092 525.365,458.092 524.176,452.941C521.207,440.08 508.301,434.057 496.5,440.024M769,442.187C769,443.509 780.373,464.326 785.56,472.5C787.306,475.25 790.65,481.325 792.993,486C795.336,490.675 797.566,494.725 797.948,495C799.062,495.801 810.628,519.131 811.946,523.236C814.144,530.081 815.912,527.667 825.672,504.5C827.062,501.2 830.147,494.37 832.527,489.322C834.908,484.273 838.032,476.88 839.471,472.892C840.91,468.904 843.292,463.496 844.765,460.876C848.174,454.811 849.547,455.51 826.391,451.529C815.451,449.648 802.675,447.214 798,446.119C793.325,445.025 785.9,443.636 781.5,443.033C777.1,442.43 772.487,441.717 771.25,441.449C769.876,441.152 769,441.439 769,442.187M208.5,444.959C203.73,446.946 199,454.242 199,459.615C199,472.708 219.495,476.633 224.56,464.51C229.363,453.014 219.116,440.54 208.5,444.959M455,539.81C455,540.255 452.992,542.972 450.538,545.847C431.643,567.983 401.795,580.223 366.25,580.413C357.313,580.461 350.113,580.763 350.25,581.085C350.388,581.406 356.125,586.761 363,592.984C381.998,610.182 388.826,618.645 419.49,663C426.145,672.625 437.644,689.161 445.044,699.746C452.445,710.332 466.254,730.566 475.732,744.712C493.004,770.491 504.108,631.581 488.019,590.997C480.421,571.831 455,532.423 455,539.81M561.071,595.752C549.527,601.638 547.967,615.864 558.102,622.839C571.151,631.821 589.172,612.238 578.766,600.386C573.316,594.179 567.264,592.594 561.071,595.752M435.923,618.923C429.557,625.289 434.041,635 443.346,635C453.85,635 457.894,622.099 448.855,617.425C444.212,615.024 439.247,615.599 435.923,618.923" style="fill:rgb(11,34,42);"/>
    </g>
</svg>
